# xmcd
#
# Track frame offsets:
# 150
# 12441
# 32866
# 46598
# 60494
# 88462
# 101259
# 112943
# 124358
# 138553
# 150158
# 162066
#
# Disc length: 2421 seconds
#
#
# Revision: 0
# Processed by: cddbd v1.5.2PL0 Copyright (c) Steve Scherf et al.
# Submitted via: Nero 7, 11, 10, 0 
#
DISCID=8f09730c
DTITLE=Willie Edwards - Everlastin' Tears
DYEAR=1996
DGENRE=Blues
TTITLE0=Everlastin' Tears
TTITLE1=Dollar In
TTITLE2=Been A Long Time
TTITLE3=Read Between The Lines
TTITLE4=Helpless, Hopeless Feeling
TTITLE5=True What They Say
TTITLE6=Heart Of Deception
TTITLE7=Can't Create Desire
TTITLE8=Won't Be Back
TTITLE9=Bottom's Falling Out
TTITLE10=Company Store
TTITLE11='90s Blues
EXTD=
EXTT0=Everlastin' Tears
EXTT1=Dollar In
EXTT2=Been A Long Time
EXTT3=Read Between The Lines
EXTT4=Helpless, Hopeless Feeling
EXTT5=True What They Say
EXTT6=Heart Of Deception
EXTT7=Can't Create Desire
EXTT8=Won't Be Back
EXTT9=Bottom's Falling Out
EXTT10=Company Store
EXTT11='90s Blues
PLAYORDER=
